<mxfile host="app.diagrams.net" agent="Mozilla/5.0 (Windows NT 10.0; Win64; x64) AppleWebKit/537.36 (KHTML, like Gecko) Chrome/136.0.0.0 Safari/537.36" version="27.0.2">
  <diagram name="Page-1" id="X2NANwzeCgB477n49Xk3">
    <mxGraphModel dx="4074" dy="2254" grid="1" gridSize="10" guides="1" tooltips="1" connect="1" arrows="1" fold="1" page="1" pageScale="1" pageWidth="1100" pageHeight="1700" math="0" shadow="0">
      <root>
        <mxCell id="0" />
        <mxCell id="1" parent="0" />
        <mxCell id="cpZvpaiMkGfKeW16TDsk-1" style="edgeStyle=orthogonalEdgeStyle;rounded=0;orthogonalLoop=1;jettySize=auto;html=1;fontFamily=Lucida Console;fontSize=15;" edge="1" parent="1">
          <mxGeometry relative="1" as="geometry">
            <mxPoint x="200" y="512" as="sourcePoint" />
            <mxPoint x="440" y="672" as="targetPoint" />
            <Array as="points">
              <mxPoint x="200" y="512" />
              <mxPoint x="200" y="672" />
            </Array>
          </mxGeometry>
        </mxCell>
        <mxCell id="cpZvpaiMkGfKeW16TDsk-2" style="edgeStyle=orthogonalEdgeStyle;rounded=0;orthogonalLoop=1;jettySize=auto;html=1;fontFamily=Lucida Console;fontSize=15;" edge="1" parent="1">
          <mxGeometry relative="1" as="geometry">
            <mxPoint x="180" y="512" as="sourcePoint" />
            <mxPoint x="440" y="692" as="targetPoint" />
            <Array as="points">
              <mxPoint x="180" y="512" />
              <mxPoint x="180" y="692" />
            </Array>
          </mxGeometry>
        </mxCell>
        <mxCell id="cpZvpaiMkGfKeW16TDsk-3" style="edgeStyle=orthogonalEdgeStyle;rounded=0;orthogonalLoop=1;jettySize=auto;html=1;fontFamily=Lucida Console;fontSize=15;" edge="1" parent="1">
          <mxGeometry relative="1" as="geometry">
            <mxPoint x="440" y="712" as="targetPoint" />
            <mxPoint x="160" y="512" as="sourcePoint" />
            <Array as="points">
              <mxPoint x="160" y="512" />
              <mxPoint x="160" y="712" />
            </Array>
          </mxGeometry>
        </mxCell>
        <mxCell id="JOxilnPETZQHRf7ONT-L-1" value="&lt;font style=&quot;font-size: 17px;&quot;&gt;Scholarship Admin&lt;/font&gt;" style="html=1;dashed=0;whiteSpace=wrap;shape=mxgraph.dfd.externalEntity;fontFamily=Lucida Console;fontSize=15;" parent="1" vertex="1">
          <mxGeometry x="40" y="382" width="220" height="120" as="geometry" />
        </mxCell>
        <mxCell id="cpZvpaiMkGfKeW16TDsk-21" style="edgeStyle=orthogonalEdgeStyle;rounded=0;orthogonalLoop=1;jettySize=auto;html=1;exitX=0.056;exitY=0.024;exitDx=0;exitDy=0;fontFamily=Lucida Console;fontSize=15;exitPerimeter=0;" edge="1" parent="1" source="cpZvpaiMkGfKeW16TDsk-128">
          <mxGeometry relative="1" as="geometry">
            <mxPoint x="240" y="372" as="targetPoint" />
            <mxPoint x="480.3600000000001" y="606.232" as="sourcePoint" />
            <Array as="points">
              <mxPoint x="470" y="582" />
              <mxPoint x="470" y="582" />
              <mxPoint x="470" y="352" />
              <mxPoint x="240" y="352" />
            </Array>
          </mxGeometry>
        </mxCell>
        <mxCell id="cpZvpaiMkGfKeW16TDsk-96" style="edgeStyle=orthogonalEdgeStyle;rounded=0;orthogonalLoop=1;jettySize=auto;html=1;fontFamily=Lucida Console;fontSize=15;exitX=0.943;exitY=0.025;exitDx=0;exitDy=0;exitPerimeter=0;" edge="1" parent="1" source="cpZvpaiMkGfKeW16TDsk-128">
          <mxGeometry relative="1" as="geometry">
            <mxPoint x="870" y="428" as="targetPoint" />
            <mxPoint x="780" y="560" as="sourcePoint" />
            <Array as="points">
              <mxPoint x="780" y="428" />
            </Array>
          </mxGeometry>
        </mxCell>
        <mxCell id="cpZvpaiMkGfKeW16TDsk-110" style="edgeStyle=orthogonalEdgeStyle;rounded=0;orthogonalLoop=1;jettySize=auto;html=1;fontFamily=Lucida Console;fontSize=15;exitX=0.661;exitY=1;exitDx=0;exitDy=0;exitPerimeter=0;" edge="1" parent="1" source="JOxilnPETZQHRf7ONT-L-7">
          <mxGeometry relative="1" as="geometry">
            <mxPoint x="780" y="910" as="targetPoint" />
            <mxPoint x="1020" y="510" as="sourcePoint" />
            <Array as="points">
              <mxPoint x="1020" y="950" />
              <mxPoint x="780" y="950" />
            </Array>
          </mxGeometry>
        </mxCell>
        <mxCell id="JOxilnPETZQHRf7ONT-L-7" value="&lt;font style=&quot;font-size: 19px;&quot;&gt;Scholar&lt;/font&gt;" style="html=1;dashed=0;whiteSpace=wrap;shape=mxgraph.dfd.externalEntity;fontFamily=Lucida Console;fontSize=15;" parent="1" vertex="1">
          <mxGeometry x="875" y="382" width="220" height="120" as="geometry" />
        </mxCell>
        <mxCell id="cpZvpaiMkGfKeW16TDsk-94" style="edgeStyle=orthogonalEdgeStyle;rounded=0;orthogonalLoop=1;jettySize=auto;html=1;fontFamily=Lucida Console;fontSize=15;exitX=0.57;exitY=-0.009;exitDx=0;exitDy=0;exitPerimeter=0;" edge="1" parent="1" source="JOxilnPETZQHRf7ONT-L-8">
          <mxGeometry relative="1" as="geometry">
            <mxPoint x="680" y="910" as="targetPoint" />
            <mxPoint x="960" y="1262" as="sourcePoint" />
            <Array as="points">
              <mxPoint x="1000" y="1262" />
              <mxPoint x="1000" y="1262" />
              <mxPoint x="1000" y="1112" />
              <mxPoint x="680" y="1112" />
            </Array>
          </mxGeometry>
        </mxCell>
        <mxCell id="JOxilnPETZQHRf7ONT-L-8" value="&lt;font style=&quot;font-size: 17px;&quot;&gt;Department&amp;nbsp;&lt;span style=&quot;background-color: transparent; color: light-dark(rgb(0, 0, 0), rgb(255, 255, 255));&quot;&gt;Head&lt;/span&gt;&lt;/font&gt;" style="html=1;dashed=0;whiteSpace=wrap;shape=mxgraph.dfd.externalEntity;fontFamily=Lucida Console;fontSize=15;" parent="1" vertex="1">
          <mxGeometry x="875" y="1320" width="220" height="120" as="geometry" />
        </mxCell>
        <mxCell id="cpZvpaiMkGfKeW16TDsk-40" style="edgeStyle=orthogonalEdgeStyle;rounded=0;orthogonalLoop=1;jettySize=auto;html=1;fontFamily=Lucida Console;fontSize=15;exitX=1.004;exitY=0.251;exitDx=0;exitDy=0;exitPerimeter=0;" edge="1" parent="1" source="JOxilnPETZQHRf7ONT-L-9">
          <mxGeometry relative="1" as="geometry">
            <mxPoint x="600" y="912" as="targetPoint" />
            <mxPoint x="720" y="1352" as="sourcePoint" />
            <Array as="points">
              <mxPoint x="810" y="1352" />
              <mxPoint x="810" y="1302" />
              <mxPoint x="600" y="1302" />
            </Array>
          </mxGeometry>
        </mxCell>
        <mxCell id="JOxilnPETZQHRf7ONT-L-9" value="&lt;font style=&quot;font-size: 18px;&quot;&gt;Church Head&lt;/font&gt;" style="html=1;dashed=0;whiteSpace=wrap;shape=mxgraph.dfd.externalEntity;fontFamily=Lucida Console;fontSize=15;" parent="1" vertex="1">
          <mxGeometry x="480" y="1322" width="220" height="120" as="geometry" />
        </mxCell>
        <mxCell id="cpZvpaiMkGfKeW16TDsk-26" style="edgeStyle=orthogonalEdgeStyle;rounded=0;orthogonalLoop=1;jettySize=auto;html=1;fontFamily=Lucida Console;fontSize=15;exitX=0.681;exitY=-0.005;exitDx=0;exitDy=0;exitPerimeter=0;" edge="1" parent="1" source="JOxilnPETZQHRf7ONT-L-10">
          <mxGeometry relative="1" as="geometry">
            <mxPoint x="500" y="912" as="targetPoint" />
            <mxPoint x="190" y="1302" as="sourcePoint" />
            <Array as="points">
              <mxPoint x="190" y="1142" />
              <mxPoint x="500" y="1142" />
            </Array>
          </mxGeometry>
        </mxCell>
        <mxCell id="JOxilnPETZQHRf7ONT-L-10" value="&lt;font style=&quot;font-size: 18px;&quot;&gt;Applicant&lt;/font&gt;" style="html=1;dashed=0;whiteSpace=wrap;shape=mxgraph.dfd.externalEntity;fontFamily=Lucida Console;fontSize=15;" parent="1" vertex="1">
          <mxGeometry x="40" y="1322" width="220" height="120" as="geometry" />
        </mxCell>
        <mxCell id="cpZvpaiMkGfKeW16TDsk-6" style="edgeStyle=orthogonalEdgeStyle;rounded=0;orthogonalLoop=1;jettySize=auto;html=1;fontFamily=Lucida Console;fontSize=15;" edge="1" parent="1">
          <mxGeometry relative="1" as="geometry">
            <mxPoint x="440" y="732" as="targetPoint" />
            <mxPoint x="140" y="512" as="sourcePoint" />
            <Array as="points">
              <mxPoint x="140" y="732" />
            </Array>
          </mxGeometry>
        </mxCell>
        <mxCell id="cpZvpaiMkGfKeW16TDsk-7" style="edgeStyle=orthogonalEdgeStyle;rounded=0;orthogonalLoop=1;jettySize=auto;html=1;fontFamily=Lucida Console;fontSize=15;" edge="1" parent="1">
          <mxGeometry relative="1" as="geometry">
            <mxPoint x="440" y="752" as="targetPoint" />
            <mxPoint x="120" y="512" as="sourcePoint" />
            <Array as="points">
              <mxPoint x="120" y="752" />
            </Array>
          </mxGeometry>
        </mxCell>
        <mxCell id="cpZvpaiMkGfKeW16TDsk-8" style="edgeStyle=orthogonalEdgeStyle;rounded=0;orthogonalLoop=1;jettySize=auto;html=1;fontFamily=Lucida Console;fontSize=15;" edge="1" parent="1">
          <mxGeometry relative="1" as="geometry">
            <mxPoint x="440" y="772" as="targetPoint" />
            <mxPoint x="100" y="512" as="sourcePoint" />
            <Array as="points">
              <mxPoint x="100" y="772" />
            </Array>
          </mxGeometry>
        </mxCell>
        <mxCell id="cpZvpaiMkGfKeW16TDsk-9" style="edgeStyle=orthogonalEdgeStyle;rounded=0;orthogonalLoop=1;jettySize=auto;html=1;fontFamily=Lucida Console;fontSize=15;" edge="1" parent="1">
          <mxGeometry relative="1" as="geometry">
            <mxPoint x="440" y="792" as="targetPoint" />
            <mxPoint x="80" y="512" as="sourcePoint" />
            <Array as="points">
              <mxPoint x="80" y="792" />
            </Array>
          </mxGeometry>
        </mxCell>
        <mxCell id="cpZvpaiMkGfKeW16TDsk-10" style="edgeStyle=orthogonalEdgeStyle;rounded=0;orthogonalLoop=1;jettySize=auto;html=1;fontFamily=Lucida Console;fontSize=15;" edge="1" parent="1">
          <mxGeometry relative="1" as="geometry">
            <mxPoint x="440" y="812" as="targetPoint" />
            <mxPoint x="60" y="512" as="sourcePoint" />
            <Array as="points">
              <mxPoint x="60" y="812" />
            </Array>
          </mxGeometry>
        </mxCell>
        <mxCell id="cpZvpaiMkGfKeW16TDsk-11" value="Avaiable Scholar Spot" style="text;html=1;align=center;verticalAlign=middle;whiteSpace=wrap;rounded=0;fontFamily=Lucida Console;fontSize=14;" vertex="1" parent="1">
          <mxGeometry x="72" y="769" width="210" height="30" as="geometry" />
        </mxCell>
        <mxCell id="cpZvpaiMkGfKeW16TDsk-12" value="Application Form" style="text;html=1;align=center;verticalAlign=middle;whiteSpace=wrap;rounded=0;fontFamily=Lucida Console;fontSize=14;" vertex="1" parent="1">
          <mxGeometry x="194" y="649" width="160" height="30" as="geometry" />
        </mxCell>
        <mxCell id="cpZvpaiMkGfKeW16TDsk-13" value="&lt;span class=&quot;_fadeIn_m1hgl_8&quot;&gt;Application &amp;amp; &lt;/span&gt;&lt;span class=&quot;_fadeIn_m1hgl_8&quot;&gt;Renewal &lt;/span&gt;&lt;span class=&quot;_fadeIn_m1hgl_8&quot;&gt;Requirements&lt;/span&gt;" style="text;html=1;align=center;verticalAlign=middle;whiteSpace=wrap;rounded=0;fontFamily=Lucida Console;fontSize=14;" vertex="1" parent="1">
          <mxGeometry x="44" y="808" width="310" height="30" as="geometry" />
        </mxCell>
        <mxCell id="cpZvpaiMkGfKeW16TDsk-14" value="&lt;span class=&quot;_fadeIn_m1hgl_8&quot;&gt;Total Gratis&amp;nbsp;&lt;/span&gt;&lt;span class=&quot;_fadeIn_m1hgl_8&quot;&gt;Hours &lt;/span&gt;&lt;span class=&quot;_fadeIn_m1hgl_8&quot;&gt;Required&lt;/span&gt;" style="text;html=1;align=center;verticalAlign=middle;whiteSpace=wrap;rounded=0;fontFamily=Lucida Console;fontSize=14;" vertex="1" parent="1">
          <mxGeometry x="136" y="688" width="290" height="30" as="geometry" />
        </mxCell>
        <mxCell id="cpZvpaiMkGfKeW16TDsk-15" value="Grant slip" style="text;html=1;align=center;verticalAlign=middle;whiteSpace=wrap;rounded=0;fontFamily=Lucida Console;fontSize=14;" vertex="1" parent="1">
          <mxGeometry x="254" y="586" width="110" height="30" as="geometry" />
        </mxCell>
        <mxCell id="cpZvpaiMkGfKeW16TDsk-16" value="Date of&amp;nbsp;&amp;nbsp;Application, Updating,Renewal" style="text;html=1;align=center;verticalAlign=middle;whiteSpace=wrap;rounded=0;fontFamily=Lucida Console;fontSize=14;" vertex="1" parent="1">
          <mxGeometry x="19" y="826" width="360" height="30" as="geometry" />
        </mxCell>
        <mxCell id="cpZvpaiMkGfKeW16TDsk-17" value="Fellowship Date" style="text;html=1;align=center;verticalAlign=middle;whiteSpace=wrap;rounded=0;fontFamily=Lucida Console;fontSize=14;" vertex="1" parent="1">
          <mxGeometry x="136" y="709" width="157" height="30" as="geometry" />
        </mxCell>
        <mxCell id="cpZvpaiMkGfKeW16TDsk-18" value="Violation Hours" style="text;html=1;align=center;verticalAlign=middle;whiteSpace=wrap;rounded=0;fontFamily=Lucida Console;fontSize=14;" vertex="1" parent="1">
          <mxGeometry x="115" y="729" width="160" height="30" as="geometry" />
        </mxCell>
        <mxCell id="cpZvpaiMkGfKeW16TDsk-19" value="Approval/Reject" style="text;html=1;align=center;verticalAlign=middle;whiteSpace=wrap;rounded=0;fontFamily=Lucida Console;fontSize=14;" vertex="1" parent="1">
          <mxGeometry x="247.5" y="629" width="90" height="30" as="geometry" />
        </mxCell>
        <mxCell id="cpZvpaiMkGfKeW16TDsk-20" style="edgeStyle=orthogonalEdgeStyle;rounded=0;orthogonalLoop=1;jettySize=auto;html=1;fontFamily=Lucida Console;fontSize=15;" edge="1" parent="1">
          <mxGeometry relative="1" as="geometry">
            <mxPoint x="441" y="830" as="targetPoint" />
            <mxPoint x="40" y="512" as="sourcePoint" />
            <Array as="points">
              <mxPoint x="40" y="830" />
            </Array>
          </mxGeometry>
        </mxCell>
        <mxCell id="cpZvpaiMkGfKeW16TDsk-22" style="edgeStyle=orthogonalEdgeStyle;rounded=0;orthogonalLoop=1;jettySize=auto;html=1;fontFamily=Lucida Console;fontSize=15;exitX=0.042;exitY=0.973;exitDx=0;exitDy=0;exitPerimeter=0;" edge="1" parent="1" source="cpZvpaiMkGfKeW16TDsk-128">
          <mxGeometry relative="1" as="geometry">
            <mxPoint x="465" y="912" as="sourcePoint" />
            <mxPoint x="130" y="1302" as="targetPoint" />
            <Array as="points">
              <mxPoint x="465" y="1072" />
              <mxPoint x="130" y="1072" />
            </Array>
          </mxGeometry>
        </mxCell>
        <mxCell id="cpZvpaiMkGfKeW16TDsk-23" style="edgeStyle=orthogonalEdgeStyle;rounded=0;orthogonalLoop=1;jettySize=auto;html=1;fontFamily=Lucida Console;fontSize=15;exitX=0;exitY=0.91;exitDx=0;exitDy=0;exitPerimeter=0;" edge="1" parent="1" source="cpZvpaiMkGfKeW16TDsk-128">
          <mxGeometry relative="1" as="geometry">
            <mxPoint x="450" y="912" as="sourcePoint" />
            <mxPoint x="98" y="1302" as="targetPoint" />
            <Array as="points">
              <mxPoint x="450" y="1041" />
              <mxPoint x="98" y="1041" />
            </Array>
          </mxGeometry>
        </mxCell>
        <mxCell id="cpZvpaiMkGfKeW16TDsk-24" value="Approval/Reject" style="text;html=1;align=center;verticalAlign=middle;whiteSpace=wrap;rounded=0;fontFamily=Lucida Console;fontSize=15;" vertex="1" parent="1">
          <mxGeometry x="150" y="1017" width="90" height="30" as="geometry" />
        </mxCell>
        <mxCell id="cpZvpaiMkGfKeW16TDsk-25" value="Avaiable Scholar Spot" style="text;html=1;align=center;verticalAlign=middle;whiteSpace=wrap;rounded=0;fontFamily=Lucida Console;fontSize=15;" vertex="1" parent="1">
          <mxGeometry x="160" y="1077" width="200" height="30" as="geometry" />
        </mxCell>
        <mxCell id="cpZvpaiMkGfKeW16TDsk-27" style="edgeStyle=orthogonalEdgeStyle;rounded=0;orthogonalLoop=1;jettySize=auto;html=1;fontFamily=Lucida Console;fontSize=15;exitX=0.82;exitY=-0.006;exitDx=0;exitDy=0;exitPerimeter=0;" edge="1" parent="1" source="JOxilnPETZQHRf7ONT-L-10">
          <mxGeometry relative="1" as="geometry">
            <mxPoint x="520" y="912" as="targetPoint" />
            <mxPoint x="220" y="1300" as="sourcePoint" />
            <Array as="points">
              <mxPoint x="220" y="1182" />
              <mxPoint x="520" y="1182" />
            </Array>
          </mxGeometry>
        </mxCell>
        <mxCell id="cpZvpaiMkGfKeW16TDsk-28" value="Submitted Requirements" style="text;html=1;align=center;verticalAlign=middle;whiteSpace=wrap;rounded=0;fontFamily=Lucida Console;fontSize=15;" vertex="1" parent="1">
          <mxGeometry x="254" y="1115" width="226" height="30" as="geometry" />
        </mxCell>
        <mxCell id="cpZvpaiMkGfKeW16TDsk-29" value="Application Form" style="text;html=1;align=center;verticalAlign=middle;whiteSpace=wrap;rounded=0;fontFamily=Lucida Console;fontSize=15;" vertex="1" parent="1">
          <mxGeometry x="317" y="1152" width="170" height="30" as="geometry" />
        </mxCell>
        <mxCell id="cpZvpaiMkGfKeW16TDsk-30" value="Submitted Requirements" style="text;html=1;align=center;verticalAlign=middle;whiteSpace=wrap;rounded=0;fontFamily=Lucida Console;fontSize=15;" vertex="1" parent="1">
          <mxGeometry x="222" y="210" width="280" height="30" as="geometry" />
        </mxCell>
        <mxCell id="cpZvpaiMkGfKeW16TDsk-31" style="edgeStyle=orthogonalEdgeStyle;rounded=0;orthogonalLoop=1;jettySize=auto;html=1;fontFamily=Lucida Console;fontSize=15;" edge="1" parent="1" source="JOxilnPETZQHRf7ONT-L-1">
          <mxGeometry relative="1" as="geometry">
            <mxPoint x="441" y="849" as="targetPoint" />
            <mxPoint x="90" y="513" as="sourcePoint" />
            <Array as="points">
              <mxPoint x="20" y="442" />
              <mxPoint x="20" y="849" />
            </Array>
          </mxGeometry>
        </mxCell>
        <mxCell id="cpZvpaiMkGfKeW16TDsk-32" value="List of Scholars in Church" style="text;html=1;align=center;verticalAlign=middle;whiteSpace=wrap;rounded=0;fontFamily=Lucida Console;fontSize=14;" vertex="1" parent="1">
          <mxGeometry x="86" y="748" width="260" height="30" as="geometry" />
        </mxCell>
        <mxCell id="cpZvpaiMkGfKeW16TDsk-34" style="edgeStyle=orthogonalEdgeStyle;rounded=0;orthogonalLoop=1;jettySize=auto;html=1;fontFamily=Lucida Console;fontSize=15;exitX=0.372;exitY=1.001;exitDx=0;exitDy=0;exitPerimeter=0;" edge="1" parent="1" source="cpZvpaiMkGfKeW16TDsk-128">
          <mxGeometry relative="1" as="geometry">
            <mxPoint x="580" y="912" as="sourcePoint" />
            <mxPoint x="470" y="1352" as="targetPoint" />
            <Array as="points">
              <mxPoint x="580" y="1302" />
              <mxPoint x="340" y="1302" />
              <mxPoint x="340" y="1352" />
            </Array>
          </mxGeometry>
        </mxCell>
        <mxCell id="cpZvpaiMkGfKeW16TDsk-35" style="edgeStyle=orthogonalEdgeStyle;rounded=0;orthogonalLoop=1;jettySize=auto;html=1;fontFamily=Lucida Console;fontSize=15;exitX=0.314;exitY=1.002;exitDx=0;exitDy=0;exitPerimeter=0;" edge="1" parent="1" source="cpZvpaiMkGfKeW16TDsk-128">
          <mxGeometry relative="1" as="geometry">
            <mxPoint x="560" y="912" as="sourcePoint" />
            <mxPoint x="470" y="1382" as="targetPoint" />
            <Array as="points">
              <mxPoint x="560" y="1272" />
              <mxPoint x="310" y="1272" />
              <mxPoint x="310" y="1382" />
            </Array>
          </mxGeometry>
        </mxCell>
        <mxCell id="cpZvpaiMkGfKeW16TDsk-36" value="List of Scholar in Church" style="text;html=1;align=center;verticalAlign=middle;whiteSpace=wrap;rounded=0;fontFamily=Lucida Console;fontSize=15;" vertex="1" parent="1">
          <mxGeometry x="297" y="1216" width="241" height="30" as="geometry" />
        </mxCell>
        <mxCell id="cpZvpaiMkGfKeW16TDsk-37" value="Fellowship Date" style="text;html=1;align=center;verticalAlign=middle;whiteSpace=wrap;rounded=0;fontFamily=Lucida Console;fontSize=15;" vertex="1" parent="1">
          <mxGeometry x="373" y="1276" width="150" height="30" as="geometry" />
        </mxCell>
        <mxCell id="cpZvpaiMkGfKeW16TDsk-38" style="edgeStyle=orthogonalEdgeStyle;rounded=0;orthogonalLoop=1;jettySize=auto;html=1;fontFamily=Lucida Console;fontSize=15;exitX=0.257;exitY=1.001;exitDx=0;exitDy=0;exitPerimeter=0;" edge="1" parent="1" source="cpZvpaiMkGfKeW16TDsk-128">
          <mxGeometry relative="1" as="geometry">
            <mxPoint x="540" y="912" as="sourcePoint" />
            <mxPoint x="470" y="1412" as="targetPoint" />
            <Array as="points">
              <mxPoint x="540" y="1242" />
              <mxPoint x="290" y="1242" />
              <mxPoint x="290" y="1412" />
            </Array>
          </mxGeometry>
        </mxCell>
        <mxCell id="cpZvpaiMkGfKeW16TDsk-39" value="Transformers Form(from Scho)" style="text;html=1;align=center;verticalAlign=middle;whiteSpace=wrap;rounded=0;fontFamily=Lucida Console;fontSize=15;" vertex="1" parent="1">
          <mxGeometry x="296" y="1246" width="273.5" height="30" as="geometry" />
        </mxCell>
        <mxCell id="cpZvpaiMkGfKeW16TDsk-41" value="Caregroup Schedule" style="text;html=1;align=center;verticalAlign=middle;whiteSpace=wrap;rounded=0;fontFamily=Lucida Console;fontSize=15;" vertex="1" parent="1">
          <mxGeometry x="650" y="1216" width="170" height="30" as="geometry" />
        </mxCell>
        <mxCell id="cpZvpaiMkGfKeW16TDsk-42" style="edgeStyle=orthogonalEdgeStyle;rounded=0;orthogonalLoop=1;jettySize=auto;html=1;fontFamily=Lucida Console;fontSize=15;exitX=0.999;exitY=0.502;exitDx=0;exitDy=0;exitPerimeter=0;" edge="1" parent="1" source="JOxilnPETZQHRf7ONT-L-9">
          <mxGeometry relative="1" as="geometry">
            <mxPoint x="620" y="912" as="targetPoint" />
            <mxPoint x="720" y="1382" as="sourcePoint" />
            <Array as="points">
              <mxPoint x="840" y="1382" />
              <mxPoint x="840" y="1272" />
              <mxPoint x="620" y="1272" />
            </Array>
          </mxGeometry>
        </mxCell>
        <mxCell id="cpZvpaiMkGfKeW16TDsk-43" style="edgeStyle=orthogonalEdgeStyle;rounded=0;orthogonalLoop=1;jettySize=auto;html=1;fontFamily=Lucida Console;fontSize=15;exitX=1.002;exitY=0.752;exitDx=0;exitDy=0;exitPerimeter=0;" edge="1" parent="1" source="JOxilnPETZQHRf7ONT-L-9">
          <mxGeometry relative="1" as="geometry">
            <mxPoint x="641" y="912" as="targetPoint" />
            <mxPoint x="720" y="1412" as="sourcePoint" />
            <Array as="points">
              <mxPoint x="860" y="1412" />
              <mxPoint x="860" y="1242" />
              <mxPoint x="641" y="1242" />
            </Array>
          </mxGeometry>
        </mxCell>
        <mxCell id="cpZvpaiMkGfKeW16TDsk-44" value="Grand Fellowship Date" style="text;html=1;align=center;verticalAlign=middle;whiteSpace=wrap;rounded=0;fontFamily=Lucida Console;fontSize=15;" vertex="1" parent="1">
          <mxGeometry x="600" y="1276" width="220" height="30" as="geometry" />
        </mxCell>
        <mxCell id="cpZvpaiMkGfKeW16TDsk-45" value="Transformer Form" style="text;html=1;align=center;verticalAlign=middle;whiteSpace=wrap;rounded=0;fontFamily=Lucida Console;fontSize=15;" vertex="1" parent="1">
          <mxGeometry x="620" y="1246" width="150" height="30" as="geometry" />
        </mxCell>
        <mxCell id="cpZvpaiMkGfKeW16TDsk-48" style="edgeStyle=orthogonalEdgeStyle;rounded=0;orthogonalLoop=1;jettySize=auto;html=1;fontFamily=Lucida Console;fontSize=15;exitX=0.086;exitY=0.002;exitDx=0;exitDy=0;exitPerimeter=0;" edge="1" parent="1" source="cpZvpaiMkGfKeW16TDsk-128">
          <mxGeometry relative="1" as="geometry">
            <mxPoint x="220" y="372" as="targetPoint" />
            <mxPoint x="489.3299999999999" y="605.232" as="sourcePoint" />
            <Array as="points">
              <mxPoint x="480" y="332" />
              <mxPoint x="220" y="332" />
            </Array>
          </mxGeometry>
        </mxCell>
        <mxCell id="cpZvpaiMkGfKeW16TDsk-49" style="edgeStyle=orthogonalEdgeStyle;rounded=0;orthogonalLoop=1;jettySize=auto;html=1;fontFamily=Lucida Console;fontSize=15;exitX=0.114;exitY=0.001;exitDx=0;exitDy=0;exitPerimeter=0;" edge="1" parent="1" source="cpZvpaiMkGfKeW16TDsk-128">
          <mxGeometry relative="1" as="geometry">
            <mxPoint x="200" y="372" as="targetPoint" />
            <mxPoint x="490" y="572" as="sourcePoint" />
            <Array as="points">
              <mxPoint x="490" y="312" />
              <mxPoint x="200" y="312" />
            </Array>
          </mxGeometry>
        </mxCell>
        <mxCell id="cpZvpaiMkGfKeW16TDsk-50" value="Grand Fellowship Date" style="text;html=1;align=center;verticalAlign=middle;whiteSpace=wrap;rounded=0;fontFamily=Lucida Console;fontSize=15;" vertex="1" parent="1">
          <mxGeometry x="264" y="229" width="194" height="30" as="geometry" />
        </mxCell>
        <mxCell id="cpZvpaiMkGfKeW16TDsk-52" value="Caregroup Schedule" style="text;html=1;align=center;verticalAlign=middle;whiteSpace=wrap;rounded=0;fontFamily=Lucida Console;fontSize=15;" vertex="1" parent="1">
          <mxGeometry x="275" y="249" width="176" height="30" as="geometry" />
        </mxCell>
        <mxCell id="cpZvpaiMkGfKeW16TDsk-53" value="Caregroup Schedule" style="text;html=1;align=center;verticalAlign=middle;whiteSpace=wrap;rounded=0;fontFamily=Lucida Console;fontSize=15;" vertex="1" parent="1">
          <mxGeometry x="746.87" y="266" width="170" height="30" as="geometry" />
        </mxCell>
        <mxCell id="cpZvpaiMkGfKeW16TDsk-54" value="Grand Fellowship Date" style="text;html=1;align=center;verticalAlign=middle;whiteSpace=wrap;rounded=0;fontFamily=Lucida Console;fontSize=15;" vertex="1" parent="1">
          <mxGeometry x="736" y="247" width="200" height="30" as="geometry" />
        </mxCell>
        <mxCell id="cpZvpaiMkGfKeW16TDsk-55" value="Submitted Requirements(Grant Slip)" style="text;html=1;align=center;verticalAlign=middle;whiteSpace=wrap;rounded=0;fontFamily=Lucida Console;fontSize=15;" vertex="1" parent="1">
          <mxGeometry x="703" y="1017" width="377" height="30" as="geometry" />
        </mxCell>
        <mxCell id="cpZvpaiMkGfKeW16TDsk-56" value="Date of&amp;nbsp; Updating,Renewal" style="text;html=1;align=center;verticalAlign=middle;whiteSpace=wrap;rounded=0;fontFamily=Lucida Console;fontSize=15;" vertex="1" parent="1">
          <mxGeometry x="723" y="225" width="230" height="30" as="geometry" />
        </mxCell>
        <mxCell id="cpZvpaiMkGfKeW16TDsk-57" value="&lt;span class=&quot;_fadeIn_m1hgl_8&quot;&gt;Total Gratis&amp;nbsp;&lt;/span&gt;&lt;span class=&quot;_fadeIn_m1hgl_8&quot;&gt;Hours &lt;/span&gt;&lt;span class=&quot;_fadeIn_m1hgl_8&quot;&gt;Required&lt;/span&gt;" style="text;html=1;align=center;verticalAlign=middle;whiteSpace=wrap;rounded=0;fontFamily=Lucida Console;fontSize=15;" vertex="1" parent="1">
          <mxGeometry x="711.87" y="187" width="250" height="30" as="geometry" />
        </mxCell>
        <mxCell id="cpZvpaiMkGfKeW16TDsk-58" value="Fellowship Date" style="text;html=1;align=center;verticalAlign=middle;whiteSpace=wrap;rounded=0;fontFamily=Lucida Console;fontSize=15;" vertex="1" parent="1">
          <mxGeometry x="746.87" y="351" width="160" height="30" as="geometry" />
        </mxCell>
        <mxCell id="cpZvpaiMkGfKeW16TDsk-59" value="Violation Hours" style="text;html=1;align=center;verticalAlign=middle;whiteSpace=wrap;rounded=0;fontFamily=Lucida Console;fontSize=15;" vertex="1" parent="1">
          <mxGeometry x="757.87" y="288" width="145" height="30" as="geometry" />
        </mxCell>
        <mxCell id="cpZvpaiMkGfKeW16TDsk-60" value="Grant slip" style="text;html=1;align=center;verticalAlign=middle;whiteSpace=wrap;rounded=0;fontFamily=Lucida Console;fontSize=15;" vertex="1" parent="1">
          <mxGeometry x="764" y="404" width="110" height="30" as="geometry" />
        </mxCell>
        <mxCell id="cpZvpaiMkGfKeW16TDsk-61" value="Transformer Form" style="text;html=1;align=center;verticalAlign=middle;whiteSpace=wrap;rounded=0;fontFamily=Lucida Console;fontSize=15;" vertex="1" parent="1">
          <mxGeometry x="752.87" y="328" width="150" height="30" as="geometry" />
        </mxCell>
        <mxCell id="cpZvpaiMkGfKeW16TDsk-62" style="edgeStyle=orthogonalEdgeStyle;rounded=0;orthogonalLoop=1;jettySize=auto;html=1;fontFamily=Lucida Console;fontSize=15;" edge="1" parent="1">
          <mxGeometry relative="1" as="geometry">
            <mxPoint x="220" y="512" as="sourcePoint" />
            <mxPoint x="440" y="652" as="targetPoint" />
            <Array as="points">
              <mxPoint x="220" y="512" />
              <mxPoint x="220" y="652" />
            </Array>
          </mxGeometry>
        </mxCell>
        <mxCell id="cpZvpaiMkGfKeW16TDsk-63" value="Gratis Form" style="text;html=1;align=center;verticalAlign=middle;whiteSpace=wrap;rounded=0;fontFamily=Lucida Console;fontSize=14;" vertex="1" parent="1">
          <mxGeometry x="217.5" y="609" width="155.5" height="30" as="geometry" />
        </mxCell>
        <mxCell id="cpZvpaiMkGfKeW16TDsk-64" value="Gratis Form" style="text;html=1;align=center;verticalAlign=middle;whiteSpace=wrap;rounded=0;fontFamily=Lucida Console;fontSize=15;" vertex="1" parent="1">
          <mxGeometry x="753.9999999999999" y="378" width="115.25" height="30" as="geometry" />
        </mxCell>
        <mxCell id="cpZvpaiMkGfKeW16TDsk-65" value="Gratis Form" style="text;html=1;align=center;verticalAlign=middle;whiteSpace=wrap;rounded=0;fontFamily=Lucida Console;fontSize=15;" vertex="1" parent="1">
          <mxGeometry x="834" y="927" width="120" height="30" as="geometry" />
        </mxCell>
        <mxCell id="cpZvpaiMkGfKeW16TDsk-66" value="Transformer Form" style="text;html=1;align=center;verticalAlign=middle;whiteSpace=wrap;rounded=0;fontFamily=Lucida Console;fontSize=15;" vertex="1" parent="1">
          <mxGeometry x="819" y="957" width="150" height="30" as="geometry" />
        </mxCell>
        <mxCell id="cpZvpaiMkGfKeW16TDsk-67" value="Chosen Schedule,Department,Church" style="text;html=1;align=center;verticalAlign=middle;whiteSpace=wrap;rounded=0;fontFamily=Lucida Console;fontSize=14;" vertex="1" parent="1">
          <mxGeometry x="737" y="987" width="302.38" height="30" as="geometry" />
        </mxCell>
        <mxCell id="cpZvpaiMkGfKeW16TDsk-68" style="edgeStyle=orthogonalEdgeStyle;rounded=0;orthogonalLoop=1;jettySize=auto;html=1;fontFamily=Lucida Console;fontSize=15;exitX=0.087;exitY=1.001;exitDx=0;exitDy=0;exitPerimeter=0;" edge="1" parent="1" source="cpZvpaiMkGfKeW16TDsk-128">
          <mxGeometry relative="1" as="geometry">
            <mxPoint x="480" y="912" as="sourcePoint" />
            <mxPoint x="160" y="1302" as="targetPoint" />
            <Array as="points">
              <mxPoint x="481" y="1102" />
              <mxPoint x="160" y="1102" />
            </Array>
          </mxGeometry>
        </mxCell>
        <mxCell id="cpZvpaiMkGfKeW16TDsk-69" value="Date of Application" style="text;html=1;align=center;verticalAlign=middle;whiteSpace=wrap;rounded=0;fontFamily=Lucida Console;fontSize=15;" vertex="1" parent="1">
          <mxGeometry x="137" y="1042" width="190" height="30" as="geometry" />
        </mxCell>
        <mxCell id="cpZvpaiMkGfKeW16TDsk-70" value="Available Department(slots)" style="text;html=1;align=center;verticalAlign=middle;whiteSpace=wrap;rounded=0;fontFamily=Lucida Console;fontSize=15;" vertex="1" parent="1">
          <mxGeometry x="703" y="207" width="270" height="30" as="geometry" />
        </mxCell>
        <mxCell id="cpZvpaiMkGfKeW16TDsk-72" value="Available Department(slots)" style="text;html=1;align=center;verticalAlign=middle;whiteSpace=wrap;rounded=0;fontFamily=Lucida Console;fontSize=15;" vertex="1" parent="1">
          <mxGeometry x="215" y="191" width="302" height="30" as="geometry" />
        </mxCell>
        <mxCell id="cpZvpaiMkGfKeW16TDsk-73" value="Gratis Form" style="text;html=1;align=center;verticalAlign=middle;whiteSpace=wrap;rounded=0;fontFamily=Lucida Console;fontSize=15;" vertex="1" parent="1">
          <mxGeometry x="285" y="308" width="141" height="30" as="geometry" />
        </mxCell>
        <mxCell id="cpZvpaiMkGfKeW16TDsk-74" value="Chosen Schedule, Department, Church" style="text;html=1;align=center;verticalAlign=middle;whiteSpace=wrap;rounded=0;fontFamily=Lucida Console;fontSize=15;" vertex="1" parent="1">
          <mxGeometry x="218" y="166" width="320" height="30" as="geometry" />
        </mxCell>
        <mxCell id="cpZvpaiMkGfKeW16TDsk-75" value="Transformer Form" style="text;html=1;align=center;verticalAlign=middle;whiteSpace=wrap;rounded=0;fontFamily=Lucida Console;fontSize=15;" vertex="1" parent="1">
          <mxGeometry x="282" y="289" width="150" height="30" as="geometry" />
        </mxCell>
        <mxCell id="cpZvpaiMkGfKeW16TDsk-76" style="edgeStyle=orthogonalEdgeStyle;rounded=0;orthogonalLoop=1;jettySize=auto;html=1;fontFamily=Lucida Console;fontSize=15;" edge="1" parent="1">
          <mxGeometry relative="1" as="geometry">
            <mxPoint x="240" y="512" as="sourcePoint" />
            <mxPoint x="439" y="632" as="targetPoint" />
            <Array as="points">
              <mxPoint x="240" y="632" />
            </Array>
          </mxGeometry>
        </mxCell>
        <mxCell id="cpZvpaiMkGfKeW16TDsk-77" value="Midterm and Final Exam Permit" style="text;html=1;align=center;verticalAlign=middle;whiteSpace=wrap;rounded=0;fontFamily=Lucida Console;fontSize=14;" vertex="1" parent="1">
          <mxGeometry x="61.5" y="788" width="270.5" height="30" as="geometry" />
        </mxCell>
        <mxCell id="cpZvpaiMkGfKeW16TDsk-78" value="Midterm and Final Exam Permit" style="text;html=1;align=center;verticalAlign=middle;whiteSpace=wrap;rounded=0;fontFamily=Lucida Console;fontSize=15;" vertex="1" parent="1">
          <mxGeometry x="703" y="165" width="275.25" height="30" as="geometry" />
        </mxCell>
        <mxCell id="cpZvpaiMkGfKeW16TDsk-79" value="Exit" style="text;html=1;align=center;verticalAlign=middle;whiteSpace=wrap;rounded=0;fontFamily=Lucida Console;fontSize=15;" vertex="1" parent="1">
          <mxGeometry x="848" y="905" width="101" height="30" as="geometry" />
        </mxCell>
        <mxCell id="cpZvpaiMkGfKeW16TDsk-80" value="Exit" style="text;html=1;align=center;verticalAlign=middle;whiteSpace=wrap;rounded=0;fontFamily=Lucida Console;fontSize=15;" vertex="1" parent="1">
          <mxGeometry x="305" y="328" width="101" height="30" as="geometry" />
        </mxCell>
        <mxCell id="cpZvpaiMkGfKeW16TDsk-81" style="edgeStyle=orthogonalEdgeStyle;rounded=0;orthogonalLoop=1;jettySize=auto;html=1;fontFamily=Lucida Console;fontSize=15;exitX=0.144;exitY=-0.002;exitDx=0;exitDy=0;exitPerimeter=0;" edge="1" parent="1" source="cpZvpaiMkGfKeW16TDsk-128">
          <mxGeometry relative="1" as="geometry">
            <mxPoint x="180" y="372" as="targetPoint" />
            <mxPoint x="500" y="562" as="sourcePoint" />
            <Array as="points">
              <mxPoint x="500" y="292" />
              <mxPoint x="180" y="292" />
            </Array>
          </mxGeometry>
        </mxCell>
        <mxCell id="cpZvpaiMkGfKeW16TDsk-82" style="edgeStyle=orthogonalEdgeStyle;rounded=0;orthogonalLoop=1;jettySize=auto;html=1;fontFamily=Lucida Console;fontSize=15;exitX=0.171;exitY=-0.001;exitDx=0;exitDy=0;exitPerimeter=0;" edge="1" parent="1" source="cpZvpaiMkGfKeW16TDsk-128">
          <mxGeometry relative="1" as="geometry">
            <mxPoint x="160" y="372" as="targetPoint" />
            <mxPoint x="510" y="572" as="sourcePoint" />
            <Array as="points">
              <mxPoint x="510" y="272" />
              <mxPoint x="160" y="272" />
            </Array>
          </mxGeometry>
        </mxCell>
        <mxCell id="cpZvpaiMkGfKeW16TDsk-83" style="edgeStyle=orthogonalEdgeStyle;rounded=0;orthogonalLoop=1;jettySize=auto;html=1;fontFamily=Lucida Console;fontSize=15;exitX=0.228;exitY=-0.002;exitDx=0;exitDy=0;exitPerimeter=0;" edge="1" parent="1" source="cpZvpaiMkGfKeW16TDsk-128">
          <mxGeometry relative="1" as="geometry">
            <mxPoint x="140" y="372" as="targetPoint" />
            <mxPoint x="530" y="572" as="sourcePoint" />
            <Array as="points">
              <mxPoint x="530" y="572" />
              <mxPoint x="530" y="572" />
              <mxPoint x="530" y="252" />
              <mxPoint x="140" y="252" />
            </Array>
          </mxGeometry>
        </mxCell>
        <mxCell id="cpZvpaiMkGfKeW16TDsk-84" style="edgeStyle=orthogonalEdgeStyle;rounded=0;orthogonalLoop=1;jettySize=auto;html=1;fontFamily=Lucida Console;fontSize=15;exitX=0.287;exitY=-0.001;exitDx=0;exitDy=0;exitPerimeter=0;" edge="1" parent="1" source="cpZvpaiMkGfKeW16TDsk-128">
          <mxGeometry relative="1" as="geometry">
            <mxPoint x="120" y="372" as="targetPoint" />
            <mxPoint x="550" y="572" as="sourcePoint" />
            <Array as="points">
              <mxPoint x="551" y="232" />
              <mxPoint x="120" y="232" />
            </Array>
          </mxGeometry>
        </mxCell>
        <mxCell id="cpZvpaiMkGfKeW16TDsk-85" style="edgeStyle=orthogonalEdgeStyle;rounded=0;orthogonalLoop=1;jettySize=auto;html=1;fontFamily=Lucida Console;fontSize=15;exitX=0.341;exitY=-0.001;exitDx=0;exitDy=0;exitPerimeter=0;" edge="1" parent="1" source="cpZvpaiMkGfKeW16TDsk-128">
          <mxGeometry relative="1" as="geometry">
            <mxPoint x="100" y="372" as="targetPoint" />
            <mxPoint x="570" y="572" as="sourcePoint" />
            <Array as="points">
              <mxPoint x="569" y="562" />
              <mxPoint x="570" y="562" />
              <mxPoint x="570" y="212" />
              <mxPoint x="100" y="212" />
            </Array>
          </mxGeometry>
        </mxCell>
        <mxCell id="cpZvpaiMkGfKeW16TDsk-87" value="Application Form" style="text;html=1;align=center;verticalAlign=middle;whiteSpace=wrap;rounded=0;fontFamily=Lucida Console;fontSize=15;" vertex="1" parent="1">
          <mxGeometry x="268" y="267" width="180" height="30" as="geometry" />
        </mxCell>
        <mxCell id="cpZvpaiMkGfKeW16TDsk-88" value="Gratis Form(from Scho)" style="text;html=1;align=center;verticalAlign=middle;whiteSpace=wrap;rounded=0;fontFamily=Lucida Console;fontSize=15;" vertex="1" parent="1">
          <mxGeometry x="698" y="1058" width="213.75" height="30" as="geometry" />
        </mxCell>
        <mxCell id="cpZvpaiMkGfKeW16TDsk-89" value="Available slots" style="text;html=1;align=center;verticalAlign=middle;whiteSpace=wrap;rounded=0;fontFamily=Lucida Console;fontSize=17;" vertex="1" parent="1">
          <mxGeometry x="677.25" y="1087" width="190" height="30" as="geometry" />
        </mxCell>
        <mxCell id="cpZvpaiMkGfKeW16TDsk-90" value="Gratis Form" style="text;html=1;align=center;verticalAlign=middle;whiteSpace=wrap;rounded=0;fontFamily=Lucida Console;fontSize=17;" vertex="1" parent="1">
          <mxGeometry x="696" y="1150" width="121" height="30" as="geometry" />
        </mxCell>
        <mxCell id="cpZvpaiMkGfKeW16TDsk-91" style="edgeStyle=orthogonalEdgeStyle;rounded=0;orthogonalLoop=1;jettySize=auto;html=1;fontFamily=Lucida Console;fontSize=15;exitX=0.399;exitY=0.003;exitDx=0;exitDy=0;exitPerimeter=0;" edge="1" parent="1" source="cpZvpaiMkGfKeW16TDsk-128">
          <mxGeometry relative="1" as="geometry">
            <mxPoint x="80" y="372" as="targetPoint" />
            <mxPoint x="590" y="572" as="sourcePoint" />
            <Array as="points">
              <mxPoint x="590" y="190" />
              <mxPoint x="80" y="190" />
            </Array>
          </mxGeometry>
        </mxCell>
        <mxCell id="cpZvpaiMkGfKeW16TDsk-93" style="edgeStyle=orthogonalEdgeStyle;rounded=0;orthogonalLoop=1;jettySize=auto;html=1;fontFamily=Lucida Console;fontSize=15;exitX=0.596;exitY=1.002;exitDx=0;exitDy=0;exitPerimeter=0;" edge="1" parent="1" source="cpZvpaiMkGfKeW16TDsk-128">
          <mxGeometry relative="1" as="geometry">
            <mxPoint x="680" y="930" as="sourcePoint" />
            <mxPoint x="970" y="1310" as="targetPoint" />
            <Array as="points">
              <mxPoint x="660" y="903" />
              <mxPoint x="660" y="1182" />
              <mxPoint x="970" y="1182" />
            </Array>
          </mxGeometry>
        </mxCell>
        <mxCell id="cpZvpaiMkGfKeW16TDsk-95" style="edgeStyle=orthogonalEdgeStyle;rounded=0;orthogonalLoop=1;jettySize=auto;html=1;exitX=0;exitY=0;exitDx=157.5;exitDy=0;exitPerimeter=0;fontFamily=Lucida Console;fontSize=15;" edge="1" parent="1" source="JOxilnPETZQHRf7ONT-L-8">
          <mxGeometry relative="1" as="geometry">
            <mxPoint x="700" y="910" as="targetPoint" />
            <mxPoint x="1008" y="1052" as="sourcePoint" />
            <Array as="points">
              <mxPoint x="1032" y="1082" />
              <mxPoint x="700" y="1082" />
            </Array>
          </mxGeometry>
        </mxCell>
        <mxCell id="cpZvpaiMkGfKeW16TDsk-97" style="edgeStyle=orthogonalEdgeStyle;rounded=0;orthogonalLoop=1;jettySize=auto;html=1;fontFamily=Lucida Console;fontSize=15;exitX=0.915;exitY=0.002;exitDx=0;exitDy=0;exitPerimeter=0;" edge="1" parent="1" source="cpZvpaiMkGfKeW16TDsk-128">
          <mxGeometry relative="1" as="geometry">
            <mxPoint x="870" y="400" as="targetPoint" />
            <mxPoint x="770" y="560" as="sourcePoint" />
            <Array as="points">
              <mxPoint x="770" y="400" />
            </Array>
          </mxGeometry>
        </mxCell>
        <mxCell id="cpZvpaiMkGfKeW16TDsk-98" style="edgeStyle=orthogonalEdgeStyle;rounded=0;orthogonalLoop=1;jettySize=auto;html=1;fontFamily=Lucida Console;fontSize=15;exitX=0.89;exitY=0.002;exitDx=0;exitDy=0;exitPerimeter=0;" edge="1" parent="1" source="cpZvpaiMkGfKeW16TDsk-128">
          <mxGeometry relative="1" as="geometry">
            <mxPoint x="870" y="380" as="targetPoint" />
            <mxPoint x="750" y="560" as="sourcePoint" />
            <Array as="points">
              <mxPoint x="760" y="583" />
              <mxPoint x="760" y="380" />
            </Array>
          </mxGeometry>
        </mxCell>
        <mxCell id="cpZvpaiMkGfKeW16TDsk-99" style="edgeStyle=orthogonalEdgeStyle;rounded=0;orthogonalLoop=1;jettySize=auto;html=1;fontFamily=Lucida Console;fontSize=15;" edge="1" parent="1">
          <mxGeometry relative="1" as="geometry">
            <mxPoint x="260" y="512" as="sourcePoint" />
            <mxPoint x="439" y="612" as="targetPoint" />
            <Array as="points">
              <mxPoint x="260" y="612" />
            </Array>
          </mxGeometry>
        </mxCell>
        <mxCell id="cpZvpaiMkGfKeW16TDsk-100" value="Approval of Exit" style="text;html=1;align=center;verticalAlign=middle;whiteSpace=wrap;rounded=0;fontFamily=Lucida Console;fontSize=14;" vertex="1" parent="1">
          <mxGeometry x="161" y="668" width="180.5" height="30" as="geometry" />
        </mxCell>
        <mxCell id="cpZvpaiMkGfKeW16TDsk-101" value="Approval of Exit" style="text;html=1;align=center;verticalAlign=middle;whiteSpace=wrap;rounded=0;fontFamily=Lucida Console;fontSize=15;" vertex="1" parent="1">
          <mxGeometry x="737.62" y="308" width="180.5" height="30" as="geometry" />
        </mxCell>
        <mxCell id="cpZvpaiMkGfKeW16TDsk-102" style="edgeStyle=orthogonalEdgeStyle;rounded=0;orthogonalLoop=1;jettySize=auto;html=1;fontFamily=Lucida Console;fontSize=15;exitX=0.861;exitY=-0.002;exitDx=0;exitDy=0;exitPerimeter=0;" edge="1" parent="1" source="cpZvpaiMkGfKeW16TDsk-128">
          <mxGeometry relative="1" as="geometry">
            <mxPoint x="920" y="370" as="targetPoint" />
            <mxPoint x="750" y="560" as="sourcePoint" />
            <Array as="points">
              <mxPoint x="750" y="581" />
              <mxPoint x="750" y="350" />
              <mxPoint x="920" y="350" />
            </Array>
          </mxGeometry>
        </mxCell>
        <mxCell id="cpZvpaiMkGfKeW16TDsk-103" style="edgeStyle=orthogonalEdgeStyle;rounded=0;orthogonalLoop=1;jettySize=auto;html=1;fontFamily=Lucida Console;fontSize=15;exitX=0.83;exitY=-0.001;exitDx=0;exitDy=0;exitPerimeter=0;" edge="1" parent="1" source="cpZvpaiMkGfKeW16TDsk-128">
          <mxGeometry relative="1" as="geometry">
            <mxPoint x="940" y="370" as="targetPoint" />
            <mxPoint x="740" y="570" as="sourcePoint" />
            <Array as="points">
              <mxPoint x="740" y="560" />
              <mxPoint x="740" y="560" />
              <mxPoint x="740" y="330" />
              <mxPoint x="940" y="330" />
            </Array>
          </mxGeometry>
        </mxCell>
        <mxCell id="cpZvpaiMkGfKeW16TDsk-104" style="edgeStyle=orthogonalEdgeStyle;rounded=0;orthogonalLoop=1;jettySize=auto;html=1;fontFamily=Lucida Console;fontSize=15;exitX=0.799;exitY=-0.002;exitDx=0;exitDy=0;exitPerimeter=0;" edge="1" parent="1" source="cpZvpaiMkGfKeW16TDsk-128">
          <mxGeometry relative="1" as="geometry">
            <mxPoint x="960" y="370" as="targetPoint" />
            <mxPoint x="720" y="570" as="sourcePoint" />
            <Array as="points">
              <mxPoint x="730" y="570" />
              <mxPoint x="730" y="570" />
              <mxPoint x="730" y="310" />
              <mxPoint x="960" y="310" />
            </Array>
          </mxGeometry>
        </mxCell>
        <mxCell id="cpZvpaiMkGfKeW16TDsk-105" style="edgeStyle=orthogonalEdgeStyle;rounded=0;orthogonalLoop=1;jettySize=auto;html=1;fontFamily=Lucida Console;fontSize=15;exitX=0.742;exitY=0.001;exitDx=0;exitDy=0;exitPerimeter=0;" edge="1" parent="1" source="cpZvpaiMkGfKeW16TDsk-128">
          <mxGeometry relative="1" as="geometry">
            <mxPoint x="980" y="370" as="targetPoint" />
            <mxPoint x="710" y="570" as="sourcePoint" />
            <Array as="points">
              <mxPoint x="710" y="560" />
              <mxPoint x="710" y="560" />
              <mxPoint x="710" y="290" />
              <mxPoint x="980" y="290" />
            </Array>
          </mxGeometry>
        </mxCell>
        <mxCell id="cpZvpaiMkGfKeW16TDsk-106" style="edgeStyle=orthogonalEdgeStyle;rounded=0;orthogonalLoop=1;jettySize=auto;html=1;fontFamily=Lucida Console;fontSize=15;exitX=0.686;exitY=-0.002;exitDx=0;exitDy=0;exitPerimeter=0;" edge="1" parent="1" source="cpZvpaiMkGfKeW16TDsk-128">
          <mxGeometry relative="1" as="geometry">
            <mxPoint x="1000" y="370" as="targetPoint" />
            <mxPoint x="690" y="580" as="sourcePoint" />
            <Array as="points">
              <mxPoint x="690" y="270" />
              <mxPoint x="1000" y="270" />
            </Array>
          </mxGeometry>
        </mxCell>
        <mxCell id="cpZvpaiMkGfKeW16TDsk-108" style="edgeStyle=orthogonalEdgeStyle;rounded=0;orthogonalLoop=1;jettySize=auto;html=1;fontFamily=Lucida Console;fontSize=15;exitX=0.63;exitY=0.001;exitDx=0;exitDy=0;exitPerimeter=0;" edge="1" parent="1" source="cpZvpaiMkGfKeW16TDsk-128">
          <mxGeometry relative="1" as="geometry">
            <mxPoint x="1020" y="370" as="targetPoint" />
            <mxPoint x="670" y="580" as="sourcePoint" />
            <Array as="points">
              <mxPoint x="671" y="250" />
              <mxPoint x="1020" y="250" />
            </Array>
          </mxGeometry>
        </mxCell>
        <mxCell id="cpZvpaiMkGfKeW16TDsk-109" style="edgeStyle=orthogonalEdgeStyle;rounded=0;orthogonalLoop=1;jettySize=auto;html=1;fontFamily=Lucida Console;fontSize=15;exitX=0.573;exitY=-0.002;exitDx=0;exitDy=0;exitPerimeter=0;" edge="1" parent="1" source="cpZvpaiMkGfKeW16TDsk-128">
          <mxGeometry relative="1" as="geometry">
            <mxPoint x="1040" y="370" as="targetPoint" />
            <mxPoint x="650" y="570" as="sourcePoint" />
            <Array as="points">
              <mxPoint x="651" y="230" />
              <mxPoint x="1040" y="230" />
            </Array>
          </mxGeometry>
        </mxCell>
        <mxCell id="cpZvpaiMkGfKeW16TDsk-111" style="edgeStyle=orthogonalEdgeStyle;rounded=0;orthogonalLoop=1;jettySize=auto;html=1;fontFamily=Lucida Console;fontSize=15;exitX=0.75;exitY=0.999;exitDx=0;exitDy=0;exitPerimeter=0;" edge="1" parent="1" source="JOxilnPETZQHRf7ONT-L-7">
          <mxGeometry relative="1" as="geometry">
            <mxPoint x="760" y="910" as="targetPoint" />
            <mxPoint x="1040" y="510" as="sourcePoint" />
            <Array as="points">
              <mxPoint x="1040" y="980" />
              <mxPoint x="760" y="980" />
            </Array>
          </mxGeometry>
        </mxCell>
        <mxCell id="cpZvpaiMkGfKeW16TDsk-112" style="edgeStyle=orthogonalEdgeStyle;rounded=0;orthogonalLoop=1;jettySize=auto;html=1;fontFamily=Lucida Console;fontSize=15;exitX=0.567;exitY=0.999;exitDx=0;exitDy=0;exitPerimeter=0;" edge="1" parent="1" source="JOxilnPETZQHRf7ONT-L-7">
          <mxGeometry relative="1" as="geometry">
            <mxPoint x="790" y="910" as="targetPoint" />
            <mxPoint x="1000" y="510" as="sourcePoint" />
            <Array as="points">
              <mxPoint x="1000" y="930" />
              <mxPoint x="790" y="930" />
            </Array>
          </mxGeometry>
        </mxCell>
        <mxCell id="cpZvpaiMkGfKeW16TDsk-113" style="edgeStyle=orthogonalEdgeStyle;rounded=0;orthogonalLoop=1;jettySize=auto;html=1;fontFamily=Lucida Console;fontSize=15;exitX=0.84;exitY=1.005;exitDx=0;exitDy=0;exitPerimeter=0;" edge="1" parent="1" source="JOxilnPETZQHRf7ONT-L-7">
          <mxGeometry relative="1" as="geometry">
            <mxPoint x="740" y="910" as="targetPoint" />
            <mxPoint x="1060" y="510" as="sourcePoint" />
            <Array as="points">
              <mxPoint x="1060" y="510" />
              <mxPoint x="1060" y="510" />
              <mxPoint x="1060" y="1010" />
              <mxPoint x="740" y="1010" />
            </Array>
          </mxGeometry>
        </mxCell>
        <mxCell id="cpZvpaiMkGfKeW16TDsk-114" style="edgeStyle=orthogonalEdgeStyle;rounded=0;orthogonalLoop=1;jettySize=auto;html=1;fontFamily=Lucida Console;fontSize=15;exitX=0.93;exitY=1.007;exitDx=0;exitDy=0;exitPerimeter=0;" edge="1" parent="1" source="JOxilnPETZQHRf7ONT-L-7">
          <mxGeometry relative="1" as="geometry">
            <mxPoint x="720" y="910" as="targetPoint" />
            <mxPoint x="1080" y="510" as="sourcePoint" />
            <Array as="points">
              <mxPoint x="1080" y="1040" />
              <mxPoint x="720" y="1040" />
            </Array>
          </mxGeometry>
        </mxCell>
        <mxCell id="cpZvpaiMkGfKeW16TDsk-115" style="edgeStyle=orthogonalEdgeStyle;rounded=0;orthogonalLoop=1;jettySize=auto;html=1;fontFamily=Lucida Console;fontSize=15;exitX=0.512;exitY=-0.002;exitDx=0;exitDy=0;exitPerimeter=0;" edge="1" parent="1" source="cpZvpaiMkGfKeW16TDsk-128">
          <mxGeometry relative="1" as="geometry">
            <mxPoint x="1060" y="370" as="targetPoint" />
            <mxPoint x="640" y="550" as="sourcePoint" />
            <Array as="points">
              <mxPoint x="629" y="550" />
              <mxPoint x="630" y="550" />
              <mxPoint x="630" y="210" />
              <mxPoint x="1060" y="210" />
            </Array>
          </mxGeometry>
        </mxCell>
        <mxCell id="cpZvpaiMkGfKeW16TDsk-116" style="edgeStyle=orthogonalEdgeStyle;rounded=0;orthogonalLoop=1;jettySize=auto;html=1;fontFamily=Lucida Console;fontSize=15;exitX=0.453;exitY=0;exitDx=0;exitDy=0;exitPerimeter=0;" edge="1" parent="1" source="cpZvpaiMkGfKeW16TDsk-128">
          <mxGeometry relative="1" as="geometry">
            <mxPoint x="1080" y="370" as="targetPoint" />
            <mxPoint x="610" y="570" as="sourcePoint" />
            <Array as="points">
              <mxPoint x="609" y="570" />
              <mxPoint x="609" y="570" />
              <mxPoint x="609" y="190" />
              <mxPoint x="1080" y="190" />
            </Array>
          </mxGeometry>
        </mxCell>
        <mxCell id="cpZvpaiMkGfKeW16TDsk-128" value="" style="rounded=1;whiteSpace=wrap;html=1;absoluteArcSize=1;arcSize=81;strokeWidth=2;fontFamily=Lucida Console;fontSize=15;" vertex="1" parent="1">
          <mxGeometry x="450" y="582" width="350" height="320" as="geometry" />
        </mxCell>
        <mxCell id="cpZvpaiMkGfKeW16TDsk-129" value="" style="line;strokeWidth=2;rotatable=0;dashed=0;labelPosition=right;align=left;verticalAlign=middle;spacingTop=0;spacingLeft=6;points=[];portConstraint=eastwest;fontFamily=Lucida Console;fontSize=15;" vertex="1" parent="1">
          <mxGeometry x="450" y="652" width="350" height="10" as="geometry" />
        </mxCell>
        <mxCell id="cpZvpaiMkGfKeW16TDsk-130" value="&lt;font style=&quot;font-size: 26px;&quot;&gt;0&lt;/font&gt;" style="text;html=1;align=center;verticalAlign=middle;resizable=0;points=[];autosize=1;strokeColor=none;fillColor=none;fontFamily=Lucida Console;fontSize=15;" vertex="1" parent="1">
          <mxGeometry x="605" y="614" width="40" height="40" as="geometry" />
        </mxCell>
        <mxCell id="cpZvpaiMkGfKeW16TDsk-131" value="&lt;font style=&quot;font-size: 29px;&quot;&gt;&lt;span style=&quot;font-weight: normal;&quot;&gt;Scholarship&amp;nbsp;&lt;/span&gt;&lt;/font&gt;&lt;div&gt;&lt;span style=&quot;background-color: transparent; color: light-dark(rgb(0, 0, 0), rgb(255, 255, 255));&quot;&gt;&lt;font style=&quot;font-size: 29px;&quot;&gt;&lt;span style=&quot;font-weight: normal;&quot;&gt;Department&lt;/span&gt;&lt;/font&gt;&lt;/span&gt;&lt;/div&gt;" style="text;html=1;align=center;verticalAlign=middle;resizable=0;points=[];autosize=1;strokeColor=none;fillColor=none;fontFamily=Lucida Console;fontSize=15;fontStyle=1" vertex="1" parent="1">
          <mxGeometry x="515" y="739" width="230" height="80" as="geometry" />
        </mxCell>
      </root>
    </mxGraphModel>
  </diagram>
</mxfile>
